<svg width="49" height="35" viewBox="0 0 49 35" fill="none" xmlns="http://www.w3.org/2000/svg">
<path d="M48.5119 7.43613C48.5119 7.43613 48.0334 4.05781 46.5596 2.57441C44.6934 0.622071 42.607 0.6125 41.65 0.497656C34.7977 -2.68221e-07 24.5096 0 24.5096 0H24.4904C24.4904 0 14.2023 -2.68221e-07 7.35 0.497656C6.39297 0.6125 4.30664 0.622071 2.44043 2.57441C0.966602 4.05781 0.497656 7.43613 0.497656 7.43613C0.497656 7.43613 0 11.4078 0 15.3699V19.0832C0 23.0453 0.488086 27.017 0.488086 27.017C0.488086 27.017 0.966601 30.3953 2.43086 31.8787C4.29707 33.8311 6.74707 33.7641 7.83809 33.9746C11.7619 34.3478 24.5 34.4627 24.5 34.4627C24.5 34.4627 34.7977 34.4436 41.65 33.9555C42.607 33.8406 44.6934 33.8311 46.5596 31.8787C48.0334 30.3953 48.5119 27.017 48.5119 27.017C48.5119 27.017 49 23.0549 49 19.0832V15.3699C49 11.4078 48.5119 7.43613 48.5119 7.43613ZM19.4373 23.5908V9.81914L32.673 16.7289L19.4373 23.5908Z" fill="white"/>
</svg>
